<svg id="e4PcVYGUdfE1" xmlns="http://www.w3.org/2000/svg" xmlns:xlink="http://www.w3.org/1999/xlink" viewBox="0 0 640 480" shape-rendering="geometricPrecision" text-rendering="geometricPrecision"><path d="M-66.532454,240c48.316556,0,180.395696-33.696633,214.092329,0s221.548072,50.024297,271.572369,0s144.949672-44.234641,254.91149,4.91496" transform="matrix(.998966-.045464 0.029743 0.653528-6.841786 92.57769)" fill="none" stroke="#3f5787" stroke-width="1.28"/><path d="M-66.532454,240c48.316556,0,180.395696-33.696633,214.092329,0s221.548072,50.024297,271.572369,0s144.949672-44.234641,254.91149,4.91496" transform="translate(.000001 0)" fill="none" stroke="#3f5787" stroke-width="1.28"/><path d="M-66.532454,240c48.316556,0,180.395696-33.696633,214.092329,0s221.548072,50.024297,271.572369,0s144.949672-44.234641,254.91149,4.91496" transform="matrix(.997245-.07418 0.160429 2.15674-37.486912-253.793272)" fill="none" stroke="#3f5787" stroke-width="1.28"/><path d="M-66.532454,240c48.316556,0,180.395696-33.696633,214.092329,0s221.548072,50.024297,271.572369,0s144.949672-44.234641,254.91149,4.91496" transform="matrix(.994082 0.108635-.160429 1.468037 40.121507-144.804559)" fill="none" stroke="#3f5787" stroke-width="1.28"/></svg>