<svg xmlns="http://www.w3.org/2000/svg" viewBox="0 0 640 480" shape-rendering="geometricPrecision" text-rendering="geometricPrecision"><path d="M-66.532 240c48.316 0 180.395-33.697 214.092 0s221.548 50.024 271.572 0 144.95-44.235 254.912 4.915" transform="matrix(.99897 -.04546 .02974 .65353 -6.842 92.578)" fill="none" stroke="#3f5787" stroke-width="1.28"/><path d="M-66.532 240c48.316 0 180.395-33.697 214.092 0s221.548 50.024 271.572 0 144.95-44.235 254.912 4.915" fill="none" stroke="#3f5787" stroke-width="1.28"/><path d="M-66.532 240c48.316 0 180.395-33.697 214.092 0s221.548 50.024 271.572 0 144.95-44.235 254.912 4.915" transform="matrix(.99725 -.07418 .16043 2.15674 -37.487 -253.793)" fill="none" stroke="#3f5787" stroke-width="1.28"/><path d="M-66.532 240c48.316 0 180.395-33.697 214.092 0s221.548 50.024 271.572 0 144.95-44.235 254.912 4.915" transform="matrix(.99408 .10863 -.16043 1.46804 40.122 -144.805)" fill="none" stroke="#3f5787" stroke-width="1.28"/></svg>