<?xml version="1.0" encoding="utf-8"?>
<!-- Generator: Adobe Illustrator 26.0.3, SVG Export Plug-In . SVG Version: 6.00 Build 0)  -->
<svg version="1.0" id="Layer_3" xmlns="http://www.w3.org/2000/svg" xmlns:xlink="http://www.w3.org/1999/xlink" x="0px" y="0px"
	 viewBox="0 0 500 500" style="enable-background:new 0 0 500 500;" xml:space="preserve">
<style type="text/css">
	.st0{fill:none;stroke:#FFAF00;stroke-width:14;stroke-linecap:round;stroke-miterlimit:10;}
	.st1{fill:#FFAF00;}
</style>
<path class="st0" d="M224.8,195.4c0,0-17.5,7.7-17.7,38.3c-0.2,28.4-23.4,78.8-84.8,80.3"/>
<path class="st0" d="M122.2,271.8c0,0,41.7,0,42.5-43.1c0.8-40.8,24.8-67.1,55.9-78.8"/>
<path class="st0" d="M122.2,228.3c0,0-2.4-91.5,93.4-121.5"/>
<circle class="st1" cx="250" cy="250" r="10"/>
<path class="st0" d="M251.9,207.1c22.8,1,41,19.8,41,42.9c0,23.7-19.2,42.9-42.9,42.9"/>
<path class="st0" d="M250,164.7c47.1,0,85.3,38.2,85.3,85.3s-38.2,85.3-85.3,85.3c-2.6,0-5.2-0.1-7.8-0.4"/>
<path class="st0" d="M250,122.4c70.5,0,127.6,57.1,127.6,127.6S320.5,377.6,250,377.6c-16.1,0-31.5-3-45.6-8.4"/>
<path class="st0" d="M222.3,308.7c-7.2,9.4-39.8,47.3-101.3,48.1"/>
</svg>
